<svg width="79" height="104" viewBox="0 0 79 104" fill="none" xmlns="http://www.w3.org/2000/svg">
<path d="M0.355469 15.2994V88.8977C0.355469 98.6913 5.4481 103.833 15.1437 103.833H63.5237C73.2193 103.833 78.3119 98.6913 78.3119 88.8977V15.2994C78.3119 5.45689 73.2683 0.364258 63.5237 0.364258H15.1437C5.4481 0.364258 0.355469 5.45689 0.355469 15.2994ZM10.1 15.887C10.1 12.0675 12.0587 10.1088 15.9272 10.1088H62.7402C66.6576 10.1088 68.5674 12.0675 68.5674 15.887V88.2612C68.5674 92.0806 66.6087 94.0393 62.7402 94.0393H15.9272C12.0587 94.0393 10.1 92.0806 10.1 88.2612V15.887ZM39.3337 40.028C45.6016 40.028 50.7432 34.9844 50.6942 28.7165C50.5963 22.3997 45.6016 17.454 39.3337 17.405C33.0658 17.356 28.0222 22.3997 28.0222 28.7165C28.0222 35.0333 33.0658 40.028 39.3337 40.028ZM39.3337 33.9071C36.4446 33.9071 34.1431 31.5566 34.1431 28.7165C34.1431 25.6805 36.4446 23.477 39.3337 23.477C42.1738 23.477 44.5243 25.8274 44.5243 28.7165C44.5243 31.5566 42.2228 33.9071 39.3337 33.9071ZM39.3337 86.6942C50.3025 86.6942 59.1166 77.929 59.1166 66.9113C59.1166 55.8936 50.3025 47.2263 39.3337 47.1773C28.4139 47.1283 19.5998 55.8936 19.5998 66.9113C19.5998 77.929 28.4139 86.6942 39.3337 86.6942ZM39.3337 74.7951C35.0246 74.7951 31.4989 71.2694 31.4989 66.9113C31.4989 62.4063 34.9266 59.0275 39.3337 59.0275C43.7408 59.0275 47.2175 62.4063 47.2175 66.9113C47.2175 71.2694 43.7408 74.7951 39.3337 74.7951Z" fill="#787880" fill-opacity="0.2"/>
</svg>
