<svg width="28" height="29" viewBox="0 0 28 29" fill="none" xmlns="http://www.w3.org/2000/svg">
<path d="M14.8965 5.18945C14.8965 4.70605 14.4834 4.29297 14 4.29297C13.5166 4.29297 13.1123 4.70605 13.1123 5.18945V6.97363C13.1123 7.45703 13.5166 7.86133 14 7.86133C14.4834 7.86133 14.8965 7.45703 14.8965 6.97363V5.18945ZM18.4121 8.45898C18.0693 8.80176 18.0693 9.37305 18.4209 9.71582C18.7549 10.0586 19.335 10.0586 19.6777 9.70703L20.9434 8.44141C21.2861 8.10742 21.2861 7.51855 20.9434 7.17578C20.6006 6.8418 20.0293 6.8418 19.6865 7.18457L18.4121 8.45898ZM8.32227 9.70703C8.65625 10.0586 9.23633 10.0586 9.5791 9.71582C9.92188 9.38184 9.92188 8.79297 9.58789 8.45898L8.32227 7.18457C7.98828 6.85059 7.4082 6.8418 7.06543 7.17578C6.72266 7.51855 6.72266 8.10742 7.05664 8.43262L8.32227 9.70703ZM14 9.4873C11.4688 9.4873 9.36816 11.5791 9.36816 14.1191C9.36816 16.6592 11.4688 18.751 14 18.751C16.5312 18.751 18.623 16.6592 18.623 14.1191C18.623 11.5791 16.5312 9.4873 14 9.4873ZM14 11.1484C15.6172 11.1484 16.9707 12.4932 16.9707 14.1191C16.9707 15.7451 15.6172 17.0898 14 17.0898C12.374 17.0898 11.0205 15.7451 11.0205 14.1191C11.0205 12.4932 12.374 11.1484 14 11.1484ZM22.9209 15.0156C23.4043 15.0156 23.8086 14.6025 23.8086 14.1191C23.8086 13.6357 23.4043 13.2314 22.9209 13.2314H21.1367C20.6533 13.2314 20.249 13.6357 20.249 14.1191C20.249 14.6025 20.6533 15.0156 21.1367 15.0156H22.9209ZM5.08789 13.2314C4.5957 13.2314 4.19141 13.6357 4.19141 14.1191C4.19141 14.6025 4.5957 15.0156 5.08789 15.0156H6.86328C7.34668 15.0156 7.75977 14.6025 7.75977 14.1191C7.75977 13.6357 7.34668 13.2314 6.86328 13.2314H5.08789ZM19.6689 18.5312C19.3262 18.1885 18.7549 18.1973 18.4121 18.54C18.0693 18.874 18.0693 19.4453 18.4209 19.7969L19.6953 21.0625C20.0293 21.4053 20.6094 21.3965 20.9521 21.0537C21.2861 20.7109 21.2861 20.1396 20.9434 19.7969L19.6689 18.5312ZM7.05664 19.7881C6.71387 20.1309 6.70508 20.7109 7.03906 21.0449C7.38184 21.3877 7.9707 21.3965 8.30469 21.0625L9.5791 19.7969C9.92188 19.4541 9.92188 18.874 9.58789 18.54C9.24512 18.1973 8.66504 18.1973 8.32227 18.5312L7.05664 19.7881ZM14.8965 21.2646C14.8965 20.7812 14.4834 20.377 14 20.377C13.5166 20.377 13.1123 20.7812 13.1123 21.2646V23.0488C13.1123 23.5322 13.5166 23.9453 14 23.9453C14.4834 23.9453 14.8965 23.5322 14.8965 23.0488V21.2646Z" fill="black"/>
</svg>
