<svg width="18" height="20" viewBox="0 0 18 20" fill="none" xmlns="http://www.w3.org/2000/svg">
<path d="M17.9461 6.30545C17.936 5.54807 17.7942 4.79822 17.5271 4.08945C17.2954 3.4916 16.9416 2.94864 16.4883 2.49528C16.0349 2.04191 15.4919 1.6881 14.8941 1.45645C14.1944 1.1938 13.4553 1.05179 12.7081 1.03645C11.7461 0.993445 11.4411 0.981445 8.99909 0.981445C6.55709 0.981445 6.24409 0.981445 5.28909 1.03645C4.54225 1.0519 3.80344 1.19391 3.10409 1.45645C2.50615 1.68793 1.96311 2.04169 1.50973 2.49508C1.05634 2.94847 0.702583 3.4915 0.471094 4.08945C0.207925 4.78858 0.0662169 5.52756 0.0520937 6.27445C0.00909374 7.23745 -0.00390625 7.54245 -0.00390625 9.98445C-0.00390625 12.4264 -0.00390626 12.7384 0.0520937 13.6944C0.0670937 14.4424 0.208094 15.1804 0.471094 15.8814C0.702971 16.4792 1.05699 17.022 1.51053 17.4752C1.96407 17.9284 2.50716 18.282 3.10509 18.5134C3.80253 18.7866 4.54147 18.9388 5.29009 18.9634C6.25309 19.0064 6.55809 19.0194 9.00009 19.0194C11.4421 19.0194 11.7551 19.0194 12.7101 18.9634C13.4572 18.9487 14.1965 18.807 14.8961 18.5444C15.4938 18.3125 16.0366 17.9586 16.4899 17.5053C16.9433 17.052 17.2972 16.5091 17.5291 15.9114C17.7921 15.2114 17.9331 14.4734 17.9481 13.7244C17.9911 12.7624 18.0041 12.4574 18.0041 10.0144C18.0021 7.57245 18.0021 7.26245 17.9461 6.30545ZM8.99309 14.6024C6.43909 14.6024 4.37009 12.5334 4.37009 9.97945C4.37009 7.42545 6.43909 5.35645 8.99309 5.35645C10.2192 5.35645 11.3951 5.84351 12.262 6.71049C13.129 7.57747 13.6161 8.75335 13.6161 9.97945C13.6161 11.2055 13.129 12.3814 12.262 13.2484C11.3951 14.1154 10.2192 14.6024 8.99309 14.6024ZM13.8001 6.26344C13.6585 6.26358 13.5183 6.23578 13.3874 6.18166C13.2566 6.12753 13.1377 6.04813 13.0375 5.948C12.9374 5.84787 12.858 5.72898 12.8039 5.59813C12.7498 5.46729 12.722 5.32705 12.7221 5.18545C12.7221 5.04395 12.75 4.90383 12.8041 4.7731C12.8583 4.64238 12.9376 4.52359 13.0377 4.42354C13.1377 4.32348 13.2565 4.24411 13.3873 4.18997C13.518 4.13582 13.6581 4.10795 13.7996 4.10795C13.9411 4.10795 14.0812 4.13582 14.2119 4.18997C14.3427 4.24411 14.4614 4.32348 14.5615 4.42354C14.6616 4.52359 14.7409 4.64238 14.7951 4.7731C14.8492 4.90383 14.8771 5.04395 14.8771 5.18545C14.8771 5.78145 14.3951 6.26344 13.8001 6.26344Z" fill="#EBEBF5" fill-opacity="0.3"/>
<path d="M8.99309 12.9824C10.6516 12.9824 11.9961 11.638 11.9961 9.97945C11.9961 8.32093 10.6516 6.97645 8.99309 6.97645C7.33458 6.97645 5.99009 8.32093 5.99009 9.97945C5.99009 11.638 7.33458 12.9824 8.99309 12.9824Z" fill="#EBEBF5" fill-opacity="0.3"/>
</svg>
