<svg width="86" height="28" viewBox="0 0 86 28" fill="none" xmlns="http://www.w3.org/2000/svg">
<rect x="1.05" y="1.05" width="25.9" height="25.9" rx="12.95" stroke="black" stroke-width="2.1"/>
<path d="M8.59961 14L17.0996 14C18.4803 14 19.5996 15.1193 19.5996 16.5V16.5C19.5996 17.8807 18.4803 19 17.0996 19L8.59961 19" stroke="black" stroke-width="2.1"/>
<path d="M8.59961 9L17.0996 9C18.4803 9 19.5996 10.1193 19.5996 11.5V11.5C19.5996 12.8807 18.4803 14 17.0996 14L8.59961 14" stroke="black" stroke-width="2.1"/>
<path d="M32.0568 20V11.2727H34.0227V12.7557H34.125C34.3068 12.2557 34.608 11.8655 35.0284 11.5852C35.4489 11.3011 35.9508 11.1591 36.5341 11.1591C37.125 11.1591 37.6231 11.303 38.0284 11.5909C38.4375 11.875 38.7254 12.2633 38.892 12.7557H38.983C39.1761 12.2708 39.5019 11.8845 39.9602 11.5966C40.4223 11.3049 40.9697 11.1591 41.6023 11.1591C42.4053 11.1591 43.0606 11.4129 43.5682 11.9205C44.0758 12.428 44.3295 13.1686 44.3295 14.142V20H42.267V14.4602C42.267 13.9186 42.1231 13.5227 41.8352 13.2727C41.5473 13.0189 41.1951 12.892 40.7784 12.892C40.2822 12.892 39.8939 13.0473 39.6136 13.358C39.3371 13.6648 39.1989 14.0644 39.1989 14.5568V20H37.1818V14.375C37.1818 13.9242 37.0455 13.5644 36.7727 13.2955C36.5038 13.0265 36.1515 12.892 35.7159 12.892C35.4205 12.892 35.1515 12.9678 34.9091 13.1193C34.6667 13.267 34.4735 13.4773 34.3295 13.75C34.1856 14.0189 34.1136 14.3333 34.1136 14.6932V20H32.0568ZM49.423 20.1705C48.5707 20.1705 47.8321 19.983 47.2071 19.608C46.5821 19.233 46.0973 18.7083 45.7526 18.0341C45.4116 17.3598 45.2412 16.572 45.2412 15.6705C45.2412 14.7689 45.4116 13.9792 45.7526 13.3011C46.0973 12.6231 46.5821 12.0966 47.2071 11.7216C47.8321 11.3466 48.5707 11.1591 49.423 11.1591C50.2753 11.1591 51.0139 11.3466 51.6389 11.7216C52.2639 12.0966 52.7469 12.6231 53.0878 13.3011C53.4325 13.9792 53.6048 14.7689 53.6048 15.6705C53.6048 16.572 53.4325 17.3598 53.0878 18.0341C52.7469 18.7083 52.2639 19.233 51.6389 19.608C51.0139 19.983 50.2753 20.1705 49.423 20.1705ZM49.4344 18.5227C49.8965 18.5227 50.2829 18.3958 50.5935 18.142C50.9041 17.8845 51.1351 17.5398 51.2866 17.108C51.442 16.6761 51.5196 16.1951 51.5196 15.6648C51.5196 15.1307 51.442 14.6477 51.2866 14.2159C51.1351 13.7803 50.9041 13.4337 50.5935 13.1761C50.2829 12.9186 49.8965 12.7898 49.4344 12.7898C48.9609 12.7898 48.567 12.9186 48.2526 13.1761C47.942 13.4337 47.709 13.7803 47.5537 14.2159C47.4022 14.6477 47.3264 15.1307 47.3264 15.6648C47.3264 16.1951 47.4022 16.6761 47.5537 17.108C47.709 17.5398 47.942 17.8845 48.2526 18.142C48.567 18.3958 48.9609 18.5227 49.4344 18.5227ZM54.6415 20V8.36364H56.6983V12.7159H56.7835C56.8896 12.5038 57.0392 12.2784 57.2324 12.0398C57.4256 11.7973 57.6869 11.5909 58.0165 11.4205C58.346 11.2462 58.7665 11.1591 59.2778 11.1591C59.9521 11.1591 60.56 11.3314 61.1017 11.6761C61.6472 12.017 62.079 12.5227 62.3972 13.1932C62.7191 13.8598 62.8801 14.678 62.8801 15.6477C62.8801 16.6061 62.7229 17.4205 62.4085 18.0909C62.0941 18.7614 61.6661 19.2727 61.1244 19.625C60.5828 19.9773 59.9691 20.1534 59.2835 20.1534C58.7835 20.1534 58.3687 20.0701 58.0392 19.9034C57.7097 19.7367 57.4445 19.536 57.2437 19.3011C57.0468 19.0625 56.8934 18.8371 56.7835 18.625H56.6642V20H54.6415ZM56.6585 15.6364C56.6585 16.2008 56.7381 16.6951 56.8972 17.1193C57.06 17.5436 57.293 17.875 57.596 18.1136C57.9028 18.3485 58.2741 18.4659 58.7097 18.4659C59.1642 18.4659 59.5449 18.3447 59.8517 18.1023C60.1585 17.8561 60.3896 17.5208 60.5449 17.0966C60.704 16.6686 60.7835 16.1818 60.7835 15.6364C60.7835 15.0947 60.7059 14.6136 60.5506 14.1932C60.3953 13.7727 60.1642 13.4432 59.8574 13.2045C59.5506 12.9659 59.168 12.8466 58.7097 12.8466C58.2703 12.8466 57.8972 12.9621 57.5903 13.1932C57.2835 13.4242 57.0506 13.7481 56.8915 14.1648C56.7362 14.5814 56.6585 15.072 56.6585 15.6364ZM63.8287 20V11.2727H65.8855V20H63.8287ZM64.8628 10.0341C64.537 10.0341 64.2567 9.92614 64.0219 9.71023C63.787 9.49053 63.6696 9.22727 63.6696 8.92045C63.6696 8.60985 63.787 8.34659 64.0219 8.13068C64.2567 7.91098 64.537 7.80114 64.8628 7.80114C65.1923 7.80114 65.4726 7.91098 65.7037 8.13068C65.9385 8.34659 66.056 8.60985 66.056 8.92045C66.056 9.22727 65.9385 9.49053 65.7037 9.71023C65.4726 9.92614 65.1923 10.0341 64.8628 10.0341ZM67.2915 20V8.36364H69.3483V12.7159H69.4335C69.5396 12.5038 69.6892 12.2784 69.8824 12.0398C70.0756 11.7973 70.3369 11.5909 70.6665 11.4205C70.996 11.2462 71.4165 11.1591 71.9278 11.1591C72.6021 11.1591 73.21 11.3314 73.7517 11.6761C74.2972 12.017 74.729 12.5227 75.0472 13.1932C75.3691 13.8598 75.5301 14.678 75.5301 15.6477C75.5301 16.6061 75.3729 17.4205 75.0585 18.0909C74.7441 18.7614 74.3161 19.2727 73.7744 19.625C73.2328 19.9773 72.6191 20.1534 71.9335 20.1534C71.4335 20.1534 71.0187 20.0701 70.6892 19.9034C70.3597 19.7367 70.0945 19.536 69.8937 19.3011C69.6968 19.0625 69.5434 18.8371 69.4335 18.625H69.3142V20H67.2915ZM69.3085 15.6364C69.3085 16.2008 69.3881 16.6951 69.5472 17.1193C69.71 17.5436 69.943 17.875 70.246 18.1136C70.5528 18.3485 70.9241 18.4659 71.3597 18.4659C71.8142 18.4659 72.1949 18.3447 72.5017 18.1023C72.8085 17.8561 73.0396 17.5208 73.1949 17.0966C73.354 16.6686 73.4335 16.1818 73.4335 15.6364C73.4335 15.0947 73.3559 14.6136 73.2006 14.1932C73.0453 13.7727 72.8142 13.4432 72.5074 13.2045C72.2006 12.9659 71.818 12.8466 71.3597 12.8466C70.9203 12.8466 70.5472 12.9621 70.2403 13.1932C69.9335 13.4242 69.7006 13.7481 69.5415 14.1648C69.3862 14.5814 69.3085 15.072 69.3085 15.6364ZM80.2855 20.1705C79.4332 20.1705 78.6946 19.983 78.0696 19.608C77.4446 19.233 76.9598 18.7083 76.6151 18.0341C76.2741 17.3598 76.1037 16.572 76.1037 15.6705C76.1037 14.7689 76.2741 13.9792 76.6151 13.3011C76.9598 12.6231 77.4446 12.0966 78.0696 11.7216C78.6946 11.3466 79.4332 11.1591 80.2855 11.1591C81.1378 11.1591 81.8764 11.3466 82.5014 11.7216C83.1264 12.0966 83.6094 12.6231 83.9503 13.3011C84.295 13.9792 84.4673 14.7689 84.4673 15.6705C84.4673 16.572 84.295 17.3598 83.9503 18.0341C83.6094 18.7083 83.1264 19.233 82.5014 19.608C81.8764 19.983 81.1378 20.1705 80.2855 20.1705ZM80.2969 18.5227C80.759 18.5227 81.1454 18.3958 81.456 18.142C81.7666 17.8845 81.9976 17.5398 82.1491 17.108C82.3045 16.6761 82.3821 16.1951 82.3821 15.6648C82.3821 15.1307 82.3045 14.6477 82.1491 14.2159C81.9976 13.7803 81.7666 13.4337 81.456 13.1761C81.1454 12.9186 80.759 12.7898 80.2969 12.7898C79.8234 12.7898 79.4295 12.9186 79.1151 13.1761C78.8045 13.4337 78.5715 13.7803 78.4162 14.2159C78.2647 14.6477 78.1889 15.1307 78.1889 15.6648C78.1889 16.1951 78.2647 16.6761 78.4162 17.108C78.5715 17.5398 78.8045 17.8845 79.1151 18.142C79.4295 18.3958 79.8234 18.5227 80.2969 18.5227Z" fill="black"/>
</svg>
