<svg width="24" height="24" viewBox="0 0 24 24" fill="none" xmlns="http://www.w3.org/2000/svg">
<path d="M12 22C17.523 22 22 17.523 22 12C22 6.477 17.523 2 12 2C6.477 2 2 6.477 2 12C2 16.006 4.356 19.462 7.758 21.058L10.048 10.292C10.1067 10.0362 10.2636 9.81367 10.4848 9.6725C10.7061 9.53132 10.974 9.4828 11.2307 9.5374C11.4874 9.592 11.7124 9.74535 11.8571 9.96435C12.0017 10.1833 12.0545 10.4504 12.004 10.708C11.73 12 11.49 12.5 11.501 13.1C11.518 14.04 11.774 14.542 12.022 14.802C12.275 15.067 12.64 15.21 13.117 15.202C13.604 15.192 14.155 15.021 14.643 14.713C15.592 14.117 16 13.095 16 12C15.9993 11.4058 15.8663 10.8191 15.6105 10.2828C15.3547 9.74639 14.9827 9.27374 14.5213 8.89917C14.06 8.5246 13.5211 8.25752 12.9436 8.11734C12.3661 7.97717 11.7647 7.96741 11.183 8.08879C10.6013 8.21017 10.0539 8.45963 9.58067 8.81905C9.10745 9.17846 8.72025 9.6388 8.44722 10.1666C8.17419 10.6944 8.02218 11.2764 8.00225 11.8703C7.98232 12.4642 8.09497 13.0551 8.332 13.6C8.42864 13.8413 8.42756 14.1107 8.32898 14.3511C8.2304 14.5916 8.04207 14.7843 7.80389 14.8883C7.56572 14.9923 7.2964 14.9995 7.05301 14.9083C6.80962 14.8172 6.61128 14.6349 6.5 14.4C6.10192 13.4869 5.93742 12.4891 6.02133 11.4966C6.10524 10.5041 6.43494 9.54806 6.98066 8.7148C7.52639 7.88153 8.27098 7.19724 9.14726 6.72365C10.0235 6.25006 11.0039 6.00208 12 6.00208C12.9961 6.00208 13.9765 6.25006 14.8527 6.72365C15.729 7.19724 16.4736 7.88153 17.0193 8.7148C17.5651 9.54806 17.8948 10.5041 17.9787 11.4966C18.0626 12.4891 17.8981 13.4869 17.5 14.4C17.132 15.248 16.46 15.934 15.708 16.407C14.953 16.882 14.051 17.186 13.153 17.202C12.334 17.217 11.481 16.99 10.794 16.394L9.66 21.726C10.41 21.906 11.194 22.001 11.999 22.001L12 22Z" fill="#EBEBF5" fill-opacity="0.3"/>
</svg>
