<svg width="169" height="160" viewBox="0 0 169 160" fill="none" xmlns="http://www.w3.org/2000/svg">
<path d="M31.7609 109.52H137.311C146.959 109.52 151.995 104.642 151.995 94.8348V33.6574C151.995 23.8499 146.959 18.9727 137.311 18.9727H31.7609C22.1124 18.9727 17.0762 23.8499 17.0762 33.6574V94.8348C17.0762 104.642 22.1124 109.52 31.7609 109.52ZM32.4501 99.2349C28.9512 99.2349 27.3608 97.8036 27.3608 94.1987V34.2935C27.3608 30.6886 28.9512 29.2573 32.4501 29.2573H136.621C140.12 29.2573 141.711 30.6886 141.711 34.2935V94.1987C141.711 97.8036 140.12 99.2349 136.621 99.2349H32.4501ZM71.839 88.3672C73.1643 88.3672 74.2776 87.9431 75.5499 87.2539L106.351 69.1233C108.577 67.798 109.744 66.2076 109.744 64.1931C109.744 62.2316 108.63 60.6942 106.351 59.3689L75.5499 41.2383C74.2776 40.5491 73.1643 40.125 71.839 40.125C69.1883 40.125 67.0148 42.0865 67.0148 45.6914V82.7478C67.0148 86.3527 69.2413 88.3672 71.839 88.3672ZM57.4194 128.074H111.652C114.303 128.074 116.476 125.901 116.476 123.25C116.476 120.599 114.303 118.373 111.652 118.373H57.4194C54.7687 118.373 52.5951 120.599 52.5951 123.25C52.5951 125.901 54.7687 128.074 57.4194 128.074Z" fill="#787880" fill-opacity="0.2"/>
</svg>
